<svg xmlns="http://www.w3.org/2000/svg" xmlns:xlink="http://www.w3.org/1999/xlink" width="500" zoomAndPan="magnify" viewBox="0 0 375 374.999991" height="500" preserveAspectRatio="xMidYMid meet" version="1.0"><defs><clipPath id="b53c937006"><path d="M 17.269531 54 L 195 54 L 195 270.921875 L 17.269531 270.921875 Z M 17.269531 54 " clip-rule="nonzero"/></clipPath><clipPath id="6a00b47a07"><path d="M 168.832031 270.824219 C 112.933594 254.347656 109.597656 252.785156 104.695312 250.386719 C 99.378906 247.777344 94.683594 245.273438 88.636719 241.3125 C 79.875 235.679688 66.003906 224.835938 57.976562 218.578125 C 52.65625 214.40625 48.796875 211.589844 44.835938 207.941406 C 41.082031 204.601562 37.953125 201.578125 34.617188 197.617188 C 30.859375 193.132812 26.585938 188.019531 23.875 182.390625 C 21.058594 176.652344 18.972656 169.5625 18.035156 163.410156 C 17.199219 157.882812 17.199219 152.460938 17.824219 147.453125 C 18.449219 142.761719 19.285156 138.382812 21.371094 134.105469 C 23.5625 129.414062 27.003906 124.09375 31.175781 120.652344 C 35.34375 117.210938 41.289062 114.707031 46.398438 113.664062 C 50.988281 112.726562 55.472656 113.246094 60.269531 114.082031 C 65.484375 114.917969 71.53125 116.898438 76.539062 119.085938 C 81.230469 121.171875 85.820312 123.886719 89.679688 126.699219 C 93.226562 129.308594 96.769531 132.332031 99.066406 135.148438 C 100.835938 137.339844 102.191406 139.320312 102.921875 141.71875 C 103.652344 144.011719 103.757812 146.828125 103.234375 149.226562 C 102.714844 151.625 101.253906 154.441406 100.003906 156.109375 C 99.167969 157.257812 98.542969 157.882812 97.292969 158.71875 C 95.625 159.863281 92.703125 161.324219 90.304688 161.742188 C 87.90625 162.160156 85.089844 161.84375 82.796875 161.117188 C 80.5 160.386719 78.414062 159.34375 76.433594 157.046875 C 73.097656 153.191406 69.550781 143.90625 67.675781 137.234375 C 65.902344 130.976562 65.277344 124.511719 65.171875 118.253906 C 65.066406 112.203125 65.378906 106.050781 66.839844 100.210938 C 68.300781 94.265625 71.011719 88.113281 74.035156 82.898438 C 76.851562 78 80.085938 73.410156 84.152344 69.65625 C 88.324219 65.796875 93.851562 62.460938 98.960938 60.0625 C 103.652344 57.871094 108.242188 56.515625 113.457031 55.578125 C 119.296875 54.535156 126.699219 53.699219 132.644531 54.429688 C 138.066406 55.160156 143.179688 56.515625 147.976562 59.4375 C 153.503906 62.773438 159.34375 69.34375 163.515625 74.453125 C 167.058594 78.730469 169.355469 82.898438 171.855469 87.488281 C 174.359375 92.183594 176.339844 96.25 178.53125 102.507812 C 182.078125 112.414062 186.664062 130.664062 189.167969 141.71875 C 190.941406 149.644531 191.984375 155.484375 192.921875 162.367188 C 193.863281 169.042969 194.382812 175.925781 194.695312 182.285156 C 195.007812 188.230469 195.007812 194.070312 194.695312 199.492188 C 194.382812 204.394531 193.757812 208.878906 192.820312 213.46875 C 191.878906 218.160156 189.898438 222.75 188.855469 227.441406 C 187.8125 232.136719 186.664062 236.933594 186.664062 241.519531 C 186.664062 246.003906 188.648438 251.429688 188.4375 254.660156 C 188.335938 256.640625 188.019531 257.789062 187.082031 259.457031 C 185.726562 261.753906 182.390625 264.984375 180.199219 266.339844 C 178.636719 267.28125 177.070312 267.695312 175.507812 267.90625 C 173.941406 268.113281 172.167969 268.113281 170.605469 267.800781 C 169.042969 267.488281 167.371094 266.964844 165.914062 266.132812 C 164.453125 265.402344 163.097656 264.253906 162.054688 263.109375 C 160.90625 261.855469 159.96875 260.398438 159.34375 258.9375 C 158.71875 257.476562 158.089844 256.015625 158.089844 254.140625 C 158.089844 251.53125 158.71875 247.257812 160.386719 244.648438 C 162.054688 242.042969 165.496094 239.644531 167.894531 238.496094 C 169.5625 237.660156 170.917969 237.453125 172.796875 237.558594 C 175.402344 237.660156 179.78125 238.914062 182.078125 240.269531 C 183.640625 241.207031 184.683594 242.144531 185.621094 243.710938 C 186.980469 245.902344 188.335938 250.386719 188.542969 252.992188 C 188.648438 254.871094 188.230469 256.328125 187.707031 257.894531 C 187.1875 259.457031 186.351562 260.917969 185.308594 262.167969 C 184.265625 263.421875 183.328125 264.566406 181.660156 265.507812 C 179.367188 266.757812 174.777344 268.007812 172.167969 268.007812 C 170.292969 268.007812 168.832031 267.488281 167.371094 266.863281 C 165.914062 266.238281 164.453125 265.296875 163.199219 264.253906 C 161.949219 263.210938 160.90625 261.855469 160.074219 260.398438 C 159.238281 259.039062 158.925781 257.789062 158.402344 255.808594 C 157.570312 252.261719 156.316406 245.796875 156.316406 240.582031 C 156.316406 234.949219 157.570312 228.796875 158.71875 223.269531 C 159.863281 218.054688 162.160156 213.363281 163.199219 208.148438 C 164.242188 202.832031 164.765625 197.304688 164.972656 191.878906 C 165.183594 186.5625 164.765625 181.347656 164.242188 175.925781 C 163.722656 170.085938 162.992188 165.078125 161.53125 158.089844 C 159.445312 147.976562 155.484375 131.496094 152.25 121.488281 C 149.851562 114.289062 147.765625 108.660156 144.847656 103.234375 C 142.34375 98.4375 140.257812 93.328125 136.296875 90.511719 C 132.226562 87.59375 125.34375 86.132812 120.339844 86.339844 C 115.644531 86.550781 110.535156 88.425781 106.992188 91.347656 C 103.234375 94.371094 100.210938 99.691406 98.542969 104.488281 C 96.875 109.285156 96.667969 114.917969 96.769531 120.027344 C 96.875 125.136719 97.707031 131.289062 99.066406 135.148438 C 100.003906 137.859375 102.191406 139.738281 102.921875 141.71875 C 103.445312 143.074219 103.550781 144.011719 103.550781 145.472656 C 103.550781 147.558594 103.027344 150.6875 101.984375 152.875 C 100.941406 155.066406 99.273438 157.257812 97.292969 158.71875 C 95.308594 160.175781 92.703125 161.324219 90.304688 161.742188 C 87.90625 162.160156 85.714844 162.160156 82.796875 161.117188 C 77.476562 159.238281 69.03125 148.707031 62.5625 147.246094 C 57.664062 146.097656 50.675781 146.621094 48.382812 149.332031 C 45.984375 152.148438 47.441406 159.65625 48.796875 164.242188 C 50.152344 168.9375 53.492188 173.109375 56.722656 177.175781 C 60.269531 181.554688 63.816406 184.683594 69.550781 189.480469 C 79.25 197.511719 100.941406 213.363281 110.953125 219.308594 C 116.167969 222.4375 118.878906 223.375 123.570312 225.355469 C 128.996094 227.652344 134.625 229.839844 141.71875 231.820312 C 151.207031 234.535156 168.726562 236.933594 175.714844 239.332031 C 178.949219 240.476562 180.722656 241.101562 182.597656 242.667969 C 184.476562 244.230469 186.25 247.046875 187.1875 248.925781 C 187.8125 250.28125 188.019531 251.21875 188.125 252.679688 C 188.335938 254.765625 188.019531 258.3125 187.5 260.292969 C 187.082031 261.753906 186.664062 262.585938 185.726562 263.839844 C 184.476562 265.507812 181.867188 267.90625 180.09375 269.050781 C 178.84375 269.886719 178.011719 270.304688 176.550781 270.617188 C 174.464844 271.035156 168.832031 270.824219 168.832031 270.824219 " clip-rule="nonzero"/></clipPath><clipPath id="349a5dacac"><path d="M 173 58.703125 L 357.59375 58.703125 L 357.59375 268.808594 L 173 268.808594 Z M 173 58.703125 " clip-rule="nonzero"/></clipPath><clipPath id="949eebcd8e"><path d="M 173.839844 249.238281 C 196.46875 159.757812 201.683594 145.265625 207.105469 131.914062 C 211.695312 120.652344 216.910156 108.972656 221.082031 101.359375 C 223.6875 96.5625 225.773438 93.640625 228.484375 89.992188 C 231.300781 86.339844 234.21875 82.796875 237.660156 79.457031 C 241.417969 75.808594 245.902344 72.054688 250.488281 69.238281 C 255.078125 66.421875 260.1875 64.023438 265.089844 62.355469 C 269.679688 60.792969 273.953125 59.539062 278.75 59.121094 C 283.859375 58.707031 290.328125 58.496094 295.019531 60.375 C 299.398438 62.148438 302.839844 64.960938 306.386719 69.34375 C 311.601562 75.808594 317.964844 89.78125 320.464844 98.023438 C 322.132812 103.757812 322.550781 108.035156 322.34375 113.246094 C 322.132812 118.878906 320.988281 125.136719 318.796875 130.558594 C 316.503906 136.191406 307.429688 145.265625 308.472656 146.515625 C 309.410156 147.558594 317.335938 140.363281 321.613281 140.464844 C 325.785156 140.570312 329.957031 144.011719 333.816406 146.828125 C 338.089844 149.957031 342.367188 154.234375 345.703125 158.613281 C 349.144531 163.097656 352.273438 168.207031 354.152344 173.527344 C 356.027344 178.84375 357.070312 184.894531 357.175781 190.523438 C 357.277344 196.15625 356.863281 201.996094 354.878906 207.523438 C 352.691406 213.570312 347.996094 220.140625 344.035156 224.9375 C 340.699219 229.007812 337.671875 231.613281 333.292969 235.160156 C 327.453125 239.851562 317.964844 246.421875 311.394531 249.863281 C 306.59375 252.367188 303.46875 253.511719 298.355469 255.078125 C 291.265625 257.269531 282.816406 259.25 272.492188 260.605469 C 257.582031 262.585938 230.152344 263.734375 217.011719 263.734375 C 209.816406 263.734375 204.082031 263.421875 200.328125 262.691406 C 198.347656 262.378906 197.40625 262.273438 195.945312 261.335938 C 193.863281 260.082031 190.734375 256.953125 189.480469 254.871094 C 188.542969 253.304688 188.230469 252.15625 188.125 250.386719 C 188.019531 247.882812 188.4375 243.917969 189.898438 241.417969 C 191.359375 238.914062 194.070312 236.515625 196.78125 235.367188 C 199.390625 234.21875 203.457031 234.21875 205.855469 234.636719 C 207.628906 234.949219 208.773438 235.472656 210.128906 236.515625 C 212.113281 237.976562 214.824219 241 215.761719 243.710938 C 216.699219 246.421875 216.804688 250.070312 215.96875 252.785156 C 215.136719 255.496094 212.527344 258.625 210.652344 260.1875 C 209.296875 261.335938 208.148438 261.855469 206.480469 262.273438 C 204.082031 262.796875 200.015625 263.003906 197.304688 261.960938 C 194.589844 260.917969 191.777344 258.625 190.210938 256.226562 C 188.648438 253.722656 187.8125 250.175781 188.125 247.257812 C 188.4375 244.335938 190.316406 240.894531 191.777344 238.914062 C 192.820312 237.558594 193.964844 236.828125 195.320312 236.097656 C 196.675781 235.367188 197.71875 234.847656 199.703125 234.535156 C 203.351562 234.011719 210.234375 235.261719 215.96875 235.261719 C 222.332031 235.261719 228.277344 234.949219 236.203125 234.324219 C 247.671875 233.492188 267.175781 232.238281 278.125 229.839844 C 285.53125 228.277344 290.535156 226.609375 296.167969 223.792969 C 301.796875 220.976562 307.117188 217.222656 311.914062 212.839844 C 316.921875 208.253906 323.699219 202.308594 325.367188 196.78125 C 326.722656 192.296875 325.679688 187.082031 323.90625 183.015625 C 322.132812 178.84375 319.003906 175.402344 314.417969 172.273438 C 307.429688 167.582031 289.910156 166.539062 283.234375 161.21875 C 278.648438 157.570312 275.414062 152.773438 274.789062 147.871094 C 274.164062 142.65625 278.019531 135.667969 280.523438 130.664062 C 282.714844 126.285156 287.199219 123.363281 288.660156 119.085938 C 290.015625 114.917969 289.386719 110.222656 289.179688 105.53125 C 288.972656 100.628906 290.015625 92.390625 287.199219 90.304688 C 284.589844 88.324219 278.019531 90.722656 273.746094 92.183594 C 269.46875 93.640625 265.296875 96.144531 261.542969 99.167969 C 257.582031 102.402344 254.242188 106.15625 250.800781 111.160156 C 246.109375 117.941406 241.417969 127.953125 237.347656 137.234375 C 232.863281 147.347656 228.902344 158.925781 225.25 169.769531 C 221.707031 180.304688 218.890625 189.273438 215.761719 201.472656 C 211.695312 217.847656 206.898438 252.054688 203.875 259.355469 C 203.144531 261.230469 202.832031 261.542969 201.789062 262.585938 C 200.328125 264.152344 197.511719 266.238281 195.632812 267.175781 C 194.277344 267.800781 193.445312 268.113281 191.984375 268.21875 C 189.898438 268.425781 186.351562 268.113281 184.371094 267.59375 C 182.910156 267.175781 182.078125 266.757812 180.824219 265.921875 C 179.15625 264.671875 176.863281 262.480469 175.609375 260.398438 C 174.359375 258.207031 173.628906 255.183594 173.421875 253.097656 C 173.316406 251.636719 173.839844 249.238281 173.839844 249.238281 " clip-rule="nonzero"/></clipPath><clipPath id="a418ddd84a"><path d="M 114.371094 251.09375 L 197.71875 251.09375 L 197.71875 320.800781 L 114.371094 320.800781 Z M 114.371094 251.09375 " clip-rule="nonzero"/></clipPath><clipPath id="af7bc02223"><path d="M 191.671875 279.273438 C 142.238281 314.730469 136.398438 318.796875 132.539062 320.046875 C 130.664062 320.675781 129.726562 320.777344 127.953125 320.570312 C 125.554688 320.257812 121.589844 319.003906 119.402344 317.023438 C 117.210938 315.148438 115.332031 311.808594 114.8125 308.996094 C 114.289062 306.179688 114.707031 302.527344 115.960938 299.921875 C 117.210938 297.3125 119.816406 294.707031 122.425781 293.351562 C 125.03125 291.996094 128.683594 291.472656 131.496094 291.996094 C 134.417969 292.515625 137.859375 294.8125 139.632812 296.480469 C 140.882812 297.625 141.613281 298.667969 142.136719 300.339844 C 142.96875 302.632812 143.386719 307.117188 142.96875 309.515625 C 142.65625 311.289062 142.238281 312.4375 141.195312 313.792969 C 139.738281 315.773438 136.296875 318.589844 134.105469 319.632812 C 132.539062 320.363281 131.289062 320.675781 129.515625 320.570312 C 127.011719 320.464844 123.050781 319.632812 120.652344 317.960938 C 118.253906 316.292969 116.167969 312.851562 115.230469 310.558594 C 114.601562 308.890625 114.394531 307.636719 114.601562 305.867188 C 114.8125 303.363281 115.332031 300.234375 117.628906 297.210938 C 121.695312 291.785156 133.480469 286.46875 142.136719 279.792969 C 152.5625 271.867188 169.769531 255.597656 175.507812 252.472656 C 177.175781 251.53125 177.695312 251.53125 179.15625 251.324219 C 181.242188 251.113281 184.789062 251.324219 186.769531 251.84375 C 188.230469 252.15625 189.0625 252.574219 190.210938 253.410156 C 191.878906 254.554688 194.382812 257.058594 195.53125 258.726562 C 196.363281 259.875 196.78125 260.710938 197.09375 262.167969 C 197.617188 264.152344 197.929688 267.382812 197.511719 269.78125 C 197.09375 272.179688 195.53125 274.996094 194.382812 276.664062 C 193.546875 277.8125 191.671875 279.273438 191.671875 279.273438 " clip-rule="nonzero"/></clipPath><clipPath id="98f5704519"><path d="M 182.09375 247.484375 L 250.679688 247.484375 L 250.679688 316.664062 L 182.09375 316.664062 Z M 182.09375 247.484375 " clip-rule="nonzero"/></clipPath><clipPath id="99e73ea337"><path d="M 209.085938 252.472656 C 250.800781 299.816406 250.488281 302.632812 250.175781 305.03125 C 249.96875 306.699219 249.550781 307.847656 248.613281 309.308594 C 247.257812 311.289062 244.023438 314.207031 241.832031 315.355469 C 240.269531 316.191406 239.121094 316.398438 237.347656 316.398438 C 234.949219 316.398438 230.675781 315.355469 228.589844 314.207031 C 227.023438 313.375 226.191406 312.226562 225.25 311.078125 C 224.3125 309.933594 223.375 308.785156 222.957031 307.117188 C 222.332031 304.824219 221.914062 300.753906 222.75 298.042969 C 223.582031 295.332031 226.191406 292.308594 228.066406 290.742188 C 229.421875 289.597656 230.570312 289.074219 232.238281 288.761719 C 234.636719 288.242188 238.914062 288.34375 241.207031 288.972656 C 242.875 289.386719 243.917969 290.117188 245.171875 291.265625 C 246.945312 292.933594 249.34375 296.585938 250.070312 298.878906 C 250.59375 300.546875 250.699219 301.796875 250.386719 303.46875 C 249.96875 305.867188 248.714844 309.722656 246.839844 311.808594 C 244.960938 313.894531 241.730469 315.667969 238.914062 316.191406 C 236.097656 316.710938 233.699219 316.710938 229.945312 314.9375 C 220.351562 310.351562 193.132812 282.609375 186.664062 274.578125 C 184.371094 271.765625 183.535156 270.40625 182.808594 268.113281 C 182.078125 265.820312 182.179688 262.691406 182.390625 260.605469 C 182.597656 259.144531 182.808594 258.207031 183.535156 256.953125 C 184.476562 255.183594 186.25 252.472656 188.230469 251.011719 C 190.105469 249.550781 193.132812 248.507812 195.113281 247.988281 C 196.574219 247.671875 197.511719 247.570312 198.972656 247.777344 C 201.058594 248.089844 204.394531 249.132812 206.167969 250.070312 C 207.417969 250.800781 209.191406 252.472656 209.191406 252.472656 " clip-rule="nonzero"/></clipPath><clipPath id="691b9e05e9"><path d="M 23.332031 259.679688 L 344.445312 259.679688 L 344.445312 308.699219 L 23.332031 308.699219 Z M 23.332031 259.679688 " clip-rule="nonzero"/></clipPath><clipPath id="219cbeab53"><path d="M 34.40625 266.132812 C 161.949219 258.832031 179.886719 259.457031 194.695312 260.082031 C 205.230469 260.605469 211.277344 260.917969 221.808594 262.167969 C 236.515625 263.941406 256.433594 266.757812 274.578125 270.617188 C 294.5 274.890625 326.828125 282.816406 336.316406 287.199219 C 339.445312 288.660156 340.800781 289.699219 342.054688 291.160156 C 342.886719 292.203125 343.304688 293.039062 343.617188 294.289062 C 344.035156 296.167969 344.347656 299.191406 343.617188 301.277344 C 342.886719 303.363281 341.113281 305.550781 339.238281 306.804688 C 337.359375 308.054688 334.441406 308.578125 332.5625 308.578125 C 331.207031 308.578125 330.269531 308.367188 329.121094 307.742188 C 327.453125 306.910156 324.847656 304.71875 323.804688 303.152344 C 323.074219 302.007812 322.761719 301.171875 322.550781 299.816406 C 322.34375 297.941406 322.445312 294.914062 323.386719 292.933594 C 324.324219 290.953125 326.304688 288.972656 328.289062 287.929688 C 330.269531 286.886719 332.980469 286.46875 335.171875 286.886719 C 337.359375 287.300781 339.863281 288.554688 341.324219 290.222656 C 342.78125 291.785156 343.824219 294.707031 344.140625 296.585938 C 344.347656 297.941406 344.242188 298.984375 343.929688 300.128906 C 343.617188 301.277344 343.410156 302.320312 342.574219 303.363281 C 341.425781 304.925781 339.238281 307.011719 337.152344 307.847656 C 335.066406 308.679688 333.605469 308.578125 330.164062 308.160156 C 319.945312 307.011719 286.257812 294.914062 270.617188 291.265625 C 260.710938 288.867188 255.808594 287.929688 246.003906 286.574219 C 231.925781 284.589844 208.566406 282.296875 194.175781 281.460938 C 183.851562 280.835938 177.90625 280.835938 167.683594 280.941406 C 153.503906 281.046875 135.980469 281.359375 117.105469 282.609375 C 92.808594 284.175781 46.710938 293.039062 33.988281 290.429688 C 29.921875 289.597656 28.148438 288.34375 26.375 286.257812 C 24.605469 284.175781 23.457031 280.835938 23.457031 278.125 C 23.457031 275.414062 24.8125 271.972656 26.691406 269.992188 C 28.460938 268.007812 34.40625 266.132812 34.40625 266.132812 " clip-rule="nonzero"/></clipPath></defs><g clip-path="url(#b53c937006)"><g clip-path="url(#6a00b47a07)"><path fill="#38b6ff" d="M 13.652344 50.257812 L 198.867188 50.257812 L 198.867188 275.265625 L 13.652344 275.265625 Z M 13.652344 50.257812 " fill-opacity="1" fill-rule="nonzero"/></g></g><g clip-path="url(#349a5dacac)"><g clip-path="url(#949eebcd8e)"><path fill="#38b6ff" d="M 169.25 54.953125 L 361.347656 54.953125 L 361.347656 272.5625 L 169.25 272.5625 Z M 169.25 54.953125 " fill-opacity="1" fill-rule="nonzero"/></g></g><g clip-path="url(#a418ddd84a)"><g clip-path="url(#af7bc02223)"><path fill="#38b6ff" d="M 110.433594 247.152344 L 201.660156 247.152344 L 201.660156 324.742188 L 110.433594 324.742188 Z M 110.433594 247.152344 " fill-opacity="1" fill-rule="nonzero"/></g></g><g clip-path="url(#98f5704519)"><g clip-path="url(#99e73ea337)"><path fill="#38b6ff" d="M 178.21875 243.605469 L 254.554688 243.605469 L 254.554688 320.539062 L 178.21875 320.539062 Z M 178.21875 243.605469 " fill-opacity="1" fill-rule="nonzero"/></g></g><g clip-path="url(#691b9e05e9)"><g clip-path="url(#219cbeab53)"><path fill="#38b6ff" d="M 19.285156 255.183594 L 348.269531 255.183594 L 348.269531 312.75 L 19.285156 312.75 Z M 19.285156 255.183594 " fill-opacity="1" fill-rule="nonzero"/></g></g></svg>